<svg width="88" height="100" viewBox="0 0 88 100" fill="none" xmlns="http://www.w3.org/2000/svg">
<path d="M43.5758 26.0954C56.7802 26.0954 67.4837 36.7983 67.4837 50.0032C67.4837 63.2081 56.7807 73.9111 43.5758 73.9111C30.3709 73.9111 19.6679 63.2081 19.6679 50.0032C19.6679 36.7983 30.3709 26.0954 43.5758 26.0954ZM71.3496 27.4841L70.5803 26.1486C69.7432 24.697 70.8754 22.8922 72.5447 23.0133L85.2164 23.9616C86.6825 24.0681 87.5826 25.631 86.9438 26.9568L81.4278 38.4049C80.6972 39.9146 78.573 39.9969 77.7359 38.5453L76.9617 37.2098L71.0586 40.6162C70.0086 41.2065 68.7313 40.834 68.17 39.7888L64.6766 33.7406C64.1008 32.739 64.4443 31.4665 65.4411 30.8858C67.4055 29.7487 69.3797 28.6165 71.3441 27.4794L71.3496 27.4841ZM66.6707 32.7485L70.0626 38.6274L75.9705 35.2162C76.9527 34.6404 78.2398 34.9742 78.8253 35.9807L79.5366 37.2145L84.8591 26.1679L72.6319 25.2583L73.3383 26.4873C73.919 27.4744 73.5803 28.7662 72.5787 29.3421L66.6707 32.7485ZM17.0849 61.3782L11.1818 64.7846C10.1899 65.3604 8.91255 65.0265 8.32702 64.0201L7.61574 62.7911L2.29324 73.8328L14.5204 74.7473L13.8091 73.5183C13.2334 72.5264 13.5672 71.249 14.5736 70.6635L20.4767 67.2523L17.0849 61.3782ZM10.185 62.7959L16.0881 59.3895C17.0752 58.8088 18.3622 59.1476 18.9429 60.1588L22.4655 66.2652C23.0461 67.2668 22.7026 68.5441 21.7058 69.12L15.8028 72.5263L16.5721 73.8569C17.4092 75.3086 16.2769 77.1133 14.6077 76.9875L1.93591 76.0439C0.469805 75.9375 -0.430223 74.3746 0.208566 73.0488L5.72455 61.6006C6.45518 60.0909 8.57935 60.0087 9.41646 61.4603L10.185 62.7959ZM66.6716 67.2523L72.5746 70.6635C73.5666 71.2393 73.9246 72.5264 73.3343 73.5183L72.6279 74.7473L84.8551 73.8328L79.5325 62.791L78.8213 64.0249C78.56 64.5136 78.0471 64.862 77.5536 64.9975C77.031 65.1378 76.4746 65.0749 75.9666 64.7846L70.0635 61.3782L66.6716 67.2523ZM71.3456 72.5215L65.4425 69.1151C64.4603 68.5635 64.0975 67.2668 64.678 66.2603L68.2054 60.154C68.7861 59.1427 70.0683 58.8089 71.0602 59.3847L76.9633 62.791L77.7327 61.4556C78.5697 60.004 80.6987 60.0863 81.4246 61.5959L86.9405 73.0441C87.5792 74.3699 86.6793 75.9327 85.2132 76.0393L72.5415 76.9876C70.8672 77.1134 69.7351 75.3086 70.577 73.8523L71.3456 72.5215ZM16.0891 40.6155L10.186 37.2091L9.4167 38.5445C8.57962 39.9961 6.45067 39.9187 5.7248 38.4042L0.208813 26.956C-0.429877 25.6303 0.470102 24.0674 1.93616 23.9609L14.6079 23.0125C16.2821 22.8867 17.4143 24.6916 16.5723 26.1479L15.803 27.4785L21.7061 30.8849C22.7125 31.4703 23.0463 32.7574 22.4657 33.7397L18.9432 39.8508C18.3625 40.8573 17.0562 41.1911 16.0884 40.6105L16.0891 40.6155ZM11.178 35.2155L17.0811 38.6268L20.4729 32.7527L14.5699 29.3415C13.5634 28.756 13.2296 27.4786 13.8054 26.4867L14.5166 25.2577L2.28946 26.1673L7.61196 37.2139L8.32324 35.9801C8.88453 34.9978 10.1231 34.6398 11.178 35.2155ZM40.1855 78.6327V85.4455C40.1855 86.6019 39.2468 87.5406 38.0904 87.5406H36.6679L43.5677 97.6678L50.4676 87.5406H49.0499C47.8935 87.5406 46.9548 86.6019 46.9548 85.4455V78.6327H40.1758H40.1855ZM37.9549 85.31V78.4972C37.9549 77.3408 38.8936 76.4021 40.05 76.4021H47.0998C48.2563 76.4021 49.195 77.3408 49.195 78.4972V85.31H50.7288C52.4079 85.31 53.4046 87.1921 52.4562 88.5808L45.2999 99.0855C44.4677 100.305 42.6774 100.305 41.8451 99.0855L34.6888 88.5808C33.7405 87.1921 34.7372 85.31 36.4162 85.31H37.9549ZM37.9549 21.5028V14.69H36.421C34.742 14.69 33.7452 12.8079 34.6937 11.4192L41.8499 0.914503C42.6822 -0.304834 44.4725 -0.304834 45.3047 0.914503L52.461 11.4192C53.4094 12.8079 52.4126 14.69 50.7337 14.69H49.1998V21.5028C49.1998 22.6592 48.2611 23.5979 47.1047 23.5979H40.0548C38.8984 23.5979 37.9597 22.6592 37.9597 21.5028H37.9549ZM40.1855 14.5545V21.3673H46.9645V14.5545C46.9645 13.3981 47.9031 12.4594 49.0596 12.4594H50.4772L43.5774 2.32735L36.6776 12.4594H38.1001C39.2516 12.4594 40.1952 13.3981 40.1952 14.5545H40.1855ZM63.9286 42.5265C63.0915 43.9055 61.5819 44.399 59.9222 44.3556C50.8933 44.1185 46.8776 55.7796 37.0747 56.922C30.4845 57.6865 29.4103 52.8334 27.9587 46.2529C27.3829 43.6496 26.7394 40.7417 25.6217 37.8481C21.6685 43.6786 20.7782 51.1491 23.3427 57.7972C28.1378 58.3342 33.8183 60.2019 37.5591 62.989C40.2446 64.9922 42.3252 68.4712 43.7187 71.6743C46.1671 71.6549 48.5186 71.2339 50.7105 70.4694C50.6766 68.9259 50.5169 67.2905 50.2121 65.7711C49.1331 60.3905 51.7895 56.9213 57.0394 55.8665C59.2652 55.4213 61.8393 55.431 64.4618 55.7939C65.6715 51.4247 65.4779 46.7505 63.9247 42.5214L63.9286 42.5265ZM27.1892 35.8057C28.6891 39.2507 29.4537 42.7103 30.1263 45.7732C31.3311 51.2215 32.2166 55.2375 36.8228 54.7053C40.926 54.2311 44.0324 51.4247 47.1098 48.6474C50.8161 45.2991 54.4789 41.9894 59.976 42.1346C60.7211 42.1539 61.5437 42.0378 61.955 41.4765C62.1921 41.1572 62.3082 40.712 62.3179 40.1653C62.3276 39.7879 62.2889 39.3717 62.2115 38.9218C61.2873 37.3686 60.1745 35.9412 58.9018 34.6686C49.9988 25.7656 35.4252 26.2978 27.1892 35.8057ZM63.7503 57.9472C60.5568 57.5552 56.3085 57.623 53.9278 59.5778C52.2102 60.9906 51.9488 63.1003 52.3988 65.3405C52.6891 66.7873 52.8488 68.1517 52.9117 69.5695C57.8471 67.2131 61.7422 63.0471 63.755 57.9472H63.7503ZM41.221 71.5479C40.0307 69.0561 38.3228 66.3368 36.2277 64.7738C33.1116 62.4513 28.4762 60.8352 24.4408 60.1917C27.736 66.3658 33.9391 70.7591 41.2213 71.5431L41.221 71.5479Z" fill="#CC0001"/>
</svg>
