<svg width="110" height="100" viewBox="0 0 110 100" fill="none" xmlns="http://www.w3.org/2000/svg">
<path d="M61.9908 97.6861C54.911 97.5689 48.1317 95.9544 41.8469 92.8729V59.2872C41.8469 58.6505 41.3274 58.1412 40.7009 58.1412H15.743C15.3509 55.8339 15.1166 53.4859 15.0656 51.1378H44.5206C44.5614 56.1955 44.8721 61.1768 45.4476 65.9644C45.524 66.5909 46.0995 67.0442 46.726 66.9678C47.3525 66.8914 47.8058 66.3158 47.7294 65.6893C47.1691 60.9932 46.8686 56.1036 46.8279 51.1379H78.6964C78.6556 56.1293 78.3551 61.0189 77.7948 65.6893C77.7184 66.3158 78.1718 66.8914 78.7982 66.9678C78.8492 66.9678 78.8899 66.9831 78.9409 66.9831C79.5164 66.9831 80.0104 66.5552 80.0869 65.9644C80.6624 61.2073 80.9629 56.2259 80.9986 51.1378H105.788C106.425 51.1378 106.934 50.6183 106.934 49.9918C106.934 49.3551 106.415 48.8458 105.788 48.8458H80.979C80.9128 41.4911 80.3016 34.4013 79.1658 27.9678C87.8907 26.8982 95.6327 24.9678 101.581 22.3245C104.006 25.7167 106.012 29.4449 107.5 33.4585C107.724 34.0596 108.386 34.3601 108.972 34.136C109.573 33.9118 109.873 33.2497 109.649 32.664C106.14 23.1701 99.9104 15.0458 91.6187 9.17824C83.1434 3.16807 73.1555 0 62.74 0C46.4009 0 31.8743 7.87435 22.7366 20.0265C22.6194 20.1284 22.5277 20.2506 22.4615 20.3932V20.4085C16.3444 28.7005 12.7333 38.9382 12.7333 50.0056C12.7333 52.7305 12.9574 55.4708 13.4005 58.155H1.14601C0.50934 58.155 0 58.6745 0 59.301V98.8455C0 99.4821 0.519523 99.9915 1.14601 99.9915H40.6905C41.3272 99.9915 41.8365 99.4719 41.8365 98.8455V95.4278C48.1471 98.3362 54.9015 99.8744 61.9452 99.9914H61.9605C62.5869 99.9914 63.0963 99.4821 63.1065 98.8556C63.137 98.219 62.6328 97.6994 61.991 97.6842L61.9908 97.6861ZM23.9184 22.3249C29.8623 24.9581 37.6092 26.8885 46.3193 27.9581C45.1987 34.3859 44.5723 41.4808 44.5061 48.8361L15.0667 48.831C15.301 38.9753 18.5449 29.8471 23.9184 22.3249ZM78.6819 48.8461H46.8134C46.8796 41.5728 47.4908 34.5541 48.6114 28.2328C53.1343 28.7014 57.8813 28.951 62.7612 28.951C67.6356 28.951 72.3825 28.7014 76.8954 28.2328C78.0058 34.5537 78.6157 41.5573 78.6819 48.8461ZM62.7496 2.29838C66.7275 2.29838 70.7411 7.22866 73.7411 15.8315C74.8107 18.8823 75.7122 22.2847 76.4507 25.9367C72.045 26.3951 67.4253 26.6396 62.7441 26.6396C58.063 26.6396 53.4488 26.39 49.0272 25.9367C49.7555 22.2847 50.6723 18.8977 51.7368 15.8315C54.7521 7.22371 58.7717 2.29838 62.7496 2.29838ZM100.156 20.4303C94.5124 22.8446 87.0503 24.6527 78.7432 25.6713C77.9894 21.8361 77.0369 18.2758 75.9113 15.0721C73.9147 9.37265 71.4903 5.19107 68.7908 2.68511C81.2237 4.28955 92.4902 10.7738 100.156 20.4303ZM56.6996 2.6752C54.0001 5.18116 51.5604 9.378 49.5688 15.0775C48.4483 18.2862 47.4959 21.8465 46.7369 25.6767C38.4297 24.658 30.9728 22.8448 25.34 20.4357C32.9036 10.8908 44.0374 4.28942 56.6996 2.6752ZM17.0729 60.4495H24.7944V73.8652L21.3921 70.9824C20.9489 70.6055 20.2817 70.6157 19.8538 71.0232L17.0729 73.6717V60.4495ZM39.5494 97.6874H2.30239V60.4495H14.7658V76.3557C14.7658 76.8141 15.0408 77.2317 15.4585 77.41C15.6011 77.4762 15.759 77.5017 15.9169 77.5017C16.2021 77.5017 16.4924 77.3998 16.7115 77.191L20.6894 73.4118L25.202 77.2318C25.5433 77.517 26.0221 77.5832 26.4295 77.3999C26.8319 77.2165 27.0968 76.7989 27.0968 76.3557V60.4495H39.55L39.5398 97.6874L39.5494 97.6874ZM109.649 61.5043C109.598 60.9287 109.115 60.4856 108.539 60.4755C107.964 60.4602 107.459 60.8676 107.368 61.4381C105.87 70.4329 101.902 73.6162 92.2046 73.6162H69.6459V61.6214C69.6459 61.1528 69.3607 60.7352 68.9278 60.5518C68.4999 60.3685 68.0008 60.4754 67.6748 60.8014L49.0682 79.4223C48.6251 79.8654 48.6251 80.5938 49.0682 81.0522L67.6748 99.6588C67.8989 99.8829 68.1841 100 68.4846 100C68.6272 100 68.7851 99.9745 68.9277 99.9083C69.3556 99.725 69.6306 99.3073 69.6306 98.8387V86.8541H87.743C93.9365 86.8541 99.6207 84.3227 103.767 79.7489C108.188 74.8695 110.327 68.2222 109.649 61.5043ZM102.06 78.1954C98.3576 82.2905 93.2743 84.5468 87.7436 84.5468H68.4851C67.8484 84.5468 67.3391 85.0664 67.3391 85.6929V96.0476L51.5085 80.2327L67.3391 64.4021V74.767C67.3391 75.4037 67.8586 75.913 68.4851 75.913H92.1899C98.3986 75.913 103.365 74.7925 106.507 70.3205C105.62 73.2288 104.123 75.9289 102.06 78.1954Z" fill="#CC0001"/>
</svg>
