<svg width="30" height="30" viewBox="0 0 30 30" fill="none" xmlns="http://www.w3.org/2000/svg">
<path d="M22.2528 29.999H7.74518C3.46738 29.999 0 26.5316 0 22.2538V7.74517C0 3.46737 3.46738 0 7.74518 0H22.2528C26.5306 0 29.9979 3.46737 29.9979 7.74517V22.2528C29.9979 26.5306 26.5306 29.999 22.2528 29.999Z" fill="url(#paint0_linear_103_3727)"/>
<path d="M18.7587 6.43457H11.233C8.58119 6.43457 6.43408 8.58783 6.43408 11.2397V18.7653C6.43408 21.4171 8.58119 23.5642 11.233 23.5642H18.7587C21.4166 23.5642 23.5637 21.4171 23.5637 18.7653V11.2397C23.5637 8.58885 21.4166 6.43457 18.7587 6.43457ZM21.9521 18.6781C21.9521 20.4897 20.4831 21.9588 18.6715 21.9588H11.3264C9.51471 21.9588 8.04569 20.4897 8.04569 18.6781V11.3268C8.04569 9.5152 9.51471 8.04618 11.3264 8.04618H18.6715C20.4831 8.04618 21.9521 9.5152 21.9521 11.3268V18.6781Z" fill="white"/>
<path d="M14.9989 10.7852C12.6713 10.7852 10.7786 12.6717 10.7786 14.9994C10.7786 17.3332 12.6713 19.2197 14.9989 19.2197C17.3266 19.2197 19.2193 17.3332 19.2193 14.9994C19.2193 12.6717 17.3266 10.7852 14.9989 10.7852ZM14.9989 17.7076C13.5053 17.7076 12.2979 16.494 12.2979 15.0004C12.2979 13.5129 13.5053 12.2993 14.9989 12.2993C16.4926 12.2993 17.7 13.5129 17.7 15.0004C17.7 16.494 16.4926 17.7076 14.9989 17.7076Z" fill="white"/>
<path d="M20.477 10.7853C20.477 11.3392 20.0287 11.7875 19.4747 11.7875C18.9208 11.7875 18.4663 11.3392 18.4663 10.7853C18.4663 10.2313 18.9208 9.77686 19.4747 9.77686C20.0287 9.77686 20.477 10.2313 20.477 10.7853Z" fill="white"/>
<defs>
<linearGradient id="paint0_linear_103_3727" x1="27.7298" y1="2.26857" x2="2.26826" y2="27.7302" gradientUnits="userSpaceOnUse">
<stop offset="0.0011" stop-color="#FFE185"/>
<stop offset="0.2094" stop-color="#FFBB36"/>
<stop offset="0.3765" stop-color="#FF5176"/>
<stop offset="0.5238" stop-color="#F63395"/>
<stop offset="0.7394" stop-color="#A436D2"/>
<stop offset="1" stop-color="#5F4EED"/>
</linearGradient>
</defs>
</svg>
