<svg width="169" height="44" viewBox="0 0 169 44" fill="none" xmlns="http://www.w3.org/2000/svg">
<rect x="76" width="17" height="30" fill="white"/>
<path fill-rule="evenodd" clip-rule="evenodd" d="M92.8642 11.0932V0H169V30.2929L92.8642 30.2929V19.1997V17.0473C92.8642 16.3205 92.6749 15.6496 92.2962 15.0346C91.9175 14.4196 91.4157 13.9258 90.7909 13.5531C90.1661 13.1804 89.475 12.994 88.7176 12.994H81.3198C80.8567 12.994 80.4812 12.6185 80.4812 12.1554C80.4812 11.6922 80.8567 11.3168 81.3198 11.3168H88.4904H92.8642V11.0932Z" fill="#CC0001"/>
<path d="M76.1358 0H0V30.2929L76.1358 30.2929V19.1997C76.1358 19.0762 76.2359 18.9761 76.3594 18.9761H80.4812H87.6518C88.1149 18.9761 88.4904 18.6006 88.4904 18.1375C88.4904 17.6743 88.1149 17.2989 87.6518 17.2989H80.254C79.5156 17.2989 78.8339 17.1125 78.2091 16.7398C77.5843 16.3671 77.0825 15.8732 76.7038 15.2582C76.3251 14.6433 76.1358 13.9724 76.1358 13.2456V11.0932V0Z" fill="#0C00A3"/>
<path d="M152.077 26.026C151.343 26.026 150.665 25.8388 150.044 25.4642C149.422 25.0897 148.923 24.7278 148.547 24.1098C148.17 23.4919 147.982 22.8177 147.982 22.0874V13.6726C147.982 12.9423 148.17 12.2681 148.547 11.6502C148.923 11.0322 149.422 10.5359 150.044 10.1614C150.665 9.78687 151.343 9.59961 152.077 9.59961H160.492C161.245 9.59961 161.932 9.78687 162.554 10.1614C163.175 10.5359 163.664 11.0322 164.022 11.6502C164.399 12.2681 164.587 12.9423 164.587 13.6726V20.1773H152.303V21.8627H164.587V26.026H152.077ZM152.303 16.4132H160.266V13.8973H152.303V16.4132Z" fill="white"/>
<path d="M133.204 26.026C132.47 26.026 131.792 25.8388 131.171 25.4642C130.549 25.0897 130.05 24.5935 129.674 23.9755C129.297 23.3575 129.109 22.6833 129.109 21.953V13.6726C129.109 12.9423 129.297 12.2681 129.674 11.6502C130.05 11.0322 130.549 10.5359 131.171 10.1614C131.792 9.78687 132.47 9.59961 133.204 9.59961H141.619C142.372 9.59961 143.059 9.78687 143.681 10.1614C144.302 10.5359 144.791 11.0322 145.149 11.6502C145.526 12.2681 145.714 12.9423 145.714 13.6726V20.0429H133.43V21.7283H145.714V26.026H133.204ZM133.43 16.2789H141.393V13.8973H133.43V16.2789Z" fill="white"/>
<path d="M113.667 26.026V13.6726C113.667 12.9423 113.856 12.2681 114.232 11.6502C114.609 11.0322 115.108 10.5359 115.729 10.1614C116.35 9.78687 117.037 9.59961 117.79 9.59961H126.827V13.8973H117.988V26.026H113.667Z" fill="white"/>
<path d="M94.9005 26.0263V4.2666H99.2211V9.60365H107.411C108.145 9.60365 108.823 9.79092 109.444 10.1654C110.065 10.54 110.564 11.0362 110.941 11.6542C111.317 12.2722 111.505 12.9463 111.505 13.6767V26.0263H107.185V13.9014H99.2211V26.0263H94.9005Z" fill="white"/>
<path d="M69.1644 25.8957V9.60365H73.4851V25.8957H69.1644ZM69.1644 8.59242V4.2666H73.4851V8.59242H69.1644Z" fill="white"/>
<path d="M54.1518 26.026L45.1442 9.59961H50.1143L56.0164 20.4142L61.9184 9.59961H66.8885L57.8511 26.026H54.1518Z" fill="white"/>
<path d="M30.3657 26.026C29.6127 26.026 28.9255 25.8388 28.3042 25.4642C27.683 25.0897 27.1841 24.5934 26.8075 23.9755C26.4498 23.3575 26.271 22.549 26.271 21.8186V15.5827H38.5552V13.8973H26.271V9.59961H38.7811C39.5341 9.59961 40.2213 9.78687 40.8426 10.1614C41.4638 10.5359 41.9533 11.0322 42.311 11.6502C42.6875 12.2681 42.8758 12.9423 42.8758 13.6726V26.026H30.3657ZM30.5916 21.5939H38.5552V19.3468H30.5916V21.5939Z" fill="white"/>
<path d="M4.28931 26.0263L4.28932 4.2666H8.69467V13.4679H12.6764L19.3409 4.2666H23.9157V5.78345L16.6582 15.6589L24.0191 24.5094V26.0263H19.4443L12.6764 17.8499H8.69467L8.69466 26.0263H4.28931Z" fill="white"/>
<path d="M129.679 43.2394V35.5596H135.953C136.217 35.5596 136.457 35.6236 136.671 35.7516C136.893 35.8796 137.068 36.0538 137.197 36.2742C137.332 36.4947 137.4 36.7364 137.4 36.9995V41.7995C137.4 42.0626 137.332 42.3044 137.197 42.5248C137.068 42.7452 136.893 42.9195 136.671 43.0475C136.457 43.1754 136.217 43.2394 135.953 43.2394H129.679ZM131.159 41.9488H135.91C135.96 41.9488 136.003 41.931 136.038 41.8955C136.081 41.8599 136.103 41.8137 136.103 41.7568V37.0422C136.103 36.9853 136.081 36.9391 136.038 36.9035C136.003 36.868 135.96 36.8502 135.91 36.8502H131.159C131.102 36.8502 131.052 36.868 131.009 36.9035C130.973 36.9391 130.956 36.9853 130.956 37.0422V41.7568C130.956 41.8137 130.973 41.8599 131.009 41.8955C131.052 41.931 131.102 41.9488 131.159 41.9488Z" fill="white"/>
<path d="M122.986 43.2394V36.8502H119.769V35.5596H127.49V36.8502H124.273V43.2394H122.986Z" fill="white"/>
<path d="M109.904 43.2501V35.5596H111.19V41.9595H117.624V43.2501H109.904Z" fill="white"/>
<path d="M96.8213 43.2394V36.8502H93.6042V35.5596H101.325V36.8502H98.1081V43.2394H96.8213Z" fill="white"/>
<path d="M85.7869 43.2394L81.3153 35.5596H82.8166L86.3875 41.7355L89.9691 35.5596H91.4596L86.988 43.2394H85.7869Z" fill="white"/>
<path d="M71.4498 43.2395V35.5703H77.723C77.9875 35.5703 78.227 35.6379 78.4415 35.773C78.6631 35.901 78.8382 36.0752 78.9669 36.2956C79.1027 36.509 79.1706 36.7472 79.1706 37.0103V39.1223C79.1706 39.3783 79.1027 39.6165 78.9669 39.8369C78.8382 40.0574 78.6631 40.2316 78.4415 40.3596C78.227 40.4876 77.9875 40.5516 77.723 40.5516L72.7366 40.5622V43.2395H71.4498ZM72.9297 39.2609H77.6801C77.7301 39.2609 77.773 39.2431 77.8088 39.2076C77.8517 39.172 77.8731 39.1258 77.8731 39.0689V37.0423C77.8731 36.9925 77.8517 36.9498 77.8088 36.9143C77.773 36.8716 77.7301 36.8503 77.6801 36.8503H72.9297C72.8796 36.8503 72.8331 36.8716 72.7902 36.9143C72.7545 36.9498 72.7366 36.9925 72.7366 37.0423V39.0689C72.7366 39.1258 72.7545 39.172 72.7902 39.2076C72.8331 39.2431 72.8796 39.2609 72.9297 39.2609Z" fill="white"/>
<path d="M54.1423 43.2394V35.5596H55.6114L58.5067 38.9942L61.3913 35.5596H62.8711V43.2394H61.5736V37.3515L58.5067 40.9888L55.4291 37.3622V43.2394H54.1423Z" fill="white"/>
<path d="M50.6908 43.2394V35.5596H51.9669V43.2394H50.6908Z" fill="white"/>
<path d="M40.8948 43.2394V42.9408L43.8759 39.3995L40.8948 35.8582V35.5596H42.3317L44.7337 38.3862L47.125 35.5596H48.562V35.8582L45.5702 39.3995L48.562 42.9301V43.2394H47.125L44.723 40.4128L42.3317 43.2394H40.8948Z" fill="white"/>
<path d="M31.7411 43.2394V35.5596H38.8292V36.8502H33.0386V38.7595H37.7033V40.0395H33.0386V41.9488H38.8292V43.2394H31.7411Z" fill="white"/>
<path d="M29.382 39.1865V39.6132H0V39.1865H29.382Z" fill="white"/>
<path d="M169 39.1865V39.6132H139.618V39.1865H169Z" fill="white"/>
</svg>
