<svg width="30" height="30" viewBox="0 0 30 30" fill="none" xmlns="http://www.w3.org/2000/svg">
<path d="M22.2538 29.9979H7.74517C3.46737 29.9979 0 26.5306 0 22.2528V7.74518C0 3.46738 3.46737 0 7.74517 0H22.2538C26.5316 0 29.999 3.46738 29.999 7.74518V22.2528C29.999 26.5295 26.5316 29.9979 22.2538 29.9979Z" fill="url(#paint0_linear_103_3722)"/>
<path d="M6.36019 11.7813H10.0338V23.5817H6.36019V11.7813ZM8.19646 5.9165C7.02084 5.9165 6.06885 6.86952 6.06885 8.04412C6.06885 9.21975 7.02186 10.1717 8.19646 10.1717C9.37106 10.1717 10.3241 9.21872 10.3241 8.04412C10.3241 6.8685 9.37106 5.9165 8.19646 5.9165Z" fill="white"/>
<path d="M20.2565 23.5816C20.2565 21.4037 20.2719 19.2279 20.238 17.052C20.238 15.8908 19.6994 14.6597 18.3504 14.7162C18.3504 14.7162 16.0515 14.3346 16.15 17.7455V23.5826H12.4846V11.7822H16.0033V13.3959C16.0033 13.3518 16.0936 13.2605 16.1172 13.2277C16.2249 13.0789 16.3439 12.9394 16.469 12.806C16.8712 12.3813 17.3543 12.0305 17.8929 11.8007C18.5813 11.5063 19.4173 11.4324 20.1611 11.4724C20.4442 11.4878 20.7253 11.5309 20.9992 11.6027C21.7481 11.8007 22.4159 12.2285 22.8939 12.8409C23.6572 13.8196 23.8931 15.1132 23.927 16.3247C23.9341 16.5863 23.9321 16.8489 23.9218 17.1105V23.5826H20.2565V23.5816Z" fill="white"/>
<defs>
<linearGradient id="paint0_linear_103_3722" x1="27.7304" y1="2.26764" x2="2.26877" y2="27.7292" gradientUnits="userSpaceOnUse">
<stop stop-color="#007BB8"/>
<stop offset="1" stop-color="#0044E9"/>
</linearGradient>
</defs>
</svg>
