<svg width="41" height="28" viewBox="0 0 41 28" fill="none" xmlns="http://www.w3.org/2000/svg">
<path d="M34.7341 10.1589H28.9208C28.9385 10.0312 28.9503 9.90147 28.9759 9.77569C29.5615 6.86718 32.2539 4.58573 35.2349 4.35732C35.3705 4.34749 35.5788 4.33374 35.8068 4.31802C36.4534 4.27478 36.9584 3.73633 36.9584 3.08779V1.28765C36.9584 0.639109 36.4553 0.100639 35.8068 0.0574245C28.8831 -0.618641 22.8716 4.78575 22.524 11.7172C22.5063 12.0042 22.4631 12.6075 22.4316 13.0595C22.4159 13.1872 22.4061 13.3169 22.4061 13.4486V13.4506C22.3962 13.596 22.3982 13.7375 22.4061 13.879V22.4865C22.4061 25.5326 24.8744 28.001 27.9205 28.001H34.734C37.7801 28.001 40.2485 25.5327 40.2485 22.4865V15.6751C40.2485 12.629 37.7802 10.1606 34.734 10.1606L34.7341 10.1589Z" fill="#CC0001"/>
<path d="M0.0321999 13.0595C0.0164795 13.1872 0.00665283 13.3169 0.00665283 13.4486V13.4506C-0.00317383 13.596 -0.00120735 13.7375 0.00665283 13.879V22.4865C0.00665283 25.5326 2.47496 28.001 5.52112 28.001H12.3346C15.3807 28.001 17.849 25.5327 17.849 22.4865V15.6751C17.849 12.629 15.3807 10.1606 12.3346 10.1606H6.52128C6.53897 10.0329 6.55076 9.90315 6.5763 9.77738C7.16196 6.86887 9.85429 4.58742 12.8354 4.35901C12.971 4.34918 13.1773 4.33543 13.4072 4.31971C14.0538 4.27647 14.5589 3.73802 14.5589 3.08948V1.28934C14.5589 0.640799 14.0558 0.102331 13.4072 0.0591145C6.48358 -0.616949 0.472057 4.78744 0.124416 11.7189C0.10673 12.0058 0.0634956 12.6092 0.0320511 13.0612L0.0321999 13.0595Z" fill="#CC0001"/>
</svg>
