<svg width="88" height="100" viewBox="0 0 88 100" fill="none" xmlns="http://www.w3.org/2000/svg">
<path fill-rule="evenodd" clip-rule="evenodd" d="M22.1456 11.0809C21.472 11.0809 20.9277 10.5366 20.9277 9.86299C20.9277 9.18935 21.472 8.64507 22.1456 8.64507H49.8674C50.5411 8.64507 51.0853 9.18935 51.0853 9.86299C51.0853 10.5366 50.5411 11.0809 49.8674 11.0809H22.1456ZM7.39221 77.1973H55.3015L49.6802 60.4006C49.1806 59.1203 49.243 57.764 49.7472 56.5908C50.2513 55.413 51.197 54.4182 52.4641 53.8783L53.0262 53.6374C53.682 53.3563 54.3557 53.2136 55.0382 53.2136C55.5959 53.2136 56.1446 53.3073 56.6888 53.4946L56.6844 7.39673V2.43575H18.1082L18.1975 16.8591C18.2019 16.8993 18.2019 16.935 18.2019 16.9751C18.2019 17.6488 17.6576 18.193 16.984 18.193H2.44528V77.1976L7.39221 77.1973ZM8.61458 79.6376V83.3716H57.3678L56.1186 79.6376H8.61458ZM7.40111 85.8074H58.1839L58.3668 86.3472L57.6084 86.7532C57.015 87.07 56.792 87.8061 57.1087 88.395L57.9474 89.9609L57.8136 90.0323C57.2202 90.349 56.9972 91.0851 57.3139 91.674L61.4272 99.3563C61.744 99.9497 62.4801 100.173 63.069 99.856L86.9728 87.0567C87.5661 86.7399 87.7892 86.0038 87.4725 85.4149L83.3591 77.7326C83.0424 77.1392 82.3063 76.9162 81.7174 77.2329L81.5791 77.3088L80.7448 75.7473C80.4281 75.154 79.692 74.9309 79.1031 75.2477L78.6168 75.5064C78.2376 74.6186 77.9878 73.8736 78.2242 72.9323L81.9895 57.7243C82.2885 56.5197 82.3643 55.3465 82.2215 54.2044C82.0788 53.0534 81.713 51.9336 81.1241 50.8406L67.941 26.263C67.5216 25.4822 66.9952 24.8845 66.4018 24.4427C66.0538 24.184 65.6835 23.9832 65.2999 23.8315L65.2954 7.3878C65.2954 6.71415 64.7511 6.16988 64.0775 6.16988H59.1255L59.1211 1.21792C59.1211 0.544271 58.5768 0 57.9032 0H16.8864C16.5161 0 16.1815 0.165065 15.9584 0.428281L0.423816 16.0566C0.165065 16.2796 0 16.6098 0 16.98C0.254296 37.3902 0 58.0014 0 78.4207C0 79.0943 0.544271 79.6386 1.21792 79.6386H6.16988V84.5906C6.16988 85.2642 6.71415 85.8085 7.3878 85.8085L7.40111 85.8074ZM60.1779 84.1077L58.1748 78.1251C58.157 78.0582 58.1391 78.0002 58.1124 77.9377L51.9648 59.5707L51.9425 59.5127C51.6837 58.8525 51.7194 58.1521 51.9781 57.5408C52.2414 56.9207 52.741 56.3987 53.4058 56.1132L53.9679 55.8723C54.3292 55.7206 54.6817 55.6403 55.0252 55.6403C55.3687 55.6403 55.7256 55.7162 56.0825 55.8723C56.426 56.0195 56.7116 56.2158 56.948 56.4567C56.9792 56.4924 57.0105 56.5281 57.0461 56.5638C57.1844 56.7244 57.3049 56.9029 57.412 57.1036C57.461 57.2018 57.5101 57.3133 57.5592 57.4337L57.5726 57.465L62.9038 70.7999C63.06 71.2951 63.5195 71.652 64.0682 71.652C64.6481 71.652 65.1389 71.2461 65.2594 70.6973L69.4842 56.9249C69.4886 56.9026 69.4975 56.8803 69.502 56.858C69.8277 55.707 69.8767 54.6141 69.734 53.5299C69.5957 52.477 69.2789 51.4554 68.8774 50.4114L65.2951 41.1632V26.7044C65.4735 26.8962 65.6386 27.1327 65.7902 27.4093L78.9733 51.9869C79.415 52.8078 79.6871 53.642 79.7942 54.4941C79.9013 55.3507 79.8433 56.234 79.6202 57.1396L75.8549 72.3476C75.4132 74.1366 75.8504 75.2564 76.4616 76.6572L60.5432 85.1826L60.2443 84.2948C60.2265 84.2323 60.2047 84.1701 60.1779 84.1077ZM62.8547 64.1075L59.839 56.5635C59.83 56.5412 59.8256 56.5233 59.8167 56.501L59.7854 56.4296C59.607 56.0014 59.3884 55.6132 59.1207 55.2564V8.60911H62.8547V64.1075ZM65.295 47.8911L66.6155 51.2906C66.959 52.1739 67.2222 53.0171 67.3293 53.8469C67.4319 54.6187 67.4007 55.3905 67.1732 56.1935L65.295 62.3144L65.295 47.8911ZM15.6898 4.14812L15.7612 15.7563H4.15303L15.6898 4.14812ZM79.4317 78.4543L77.897 79.2752C77.3037 79.592 77.0806 80.3281 77.3973 80.917C77.7141 81.5103 78.4502 81.7334 79.0391 81.4166L81.7872 79.9444L84.754 85.4898L62.9916 97.1424L60.0248 91.6015L60.1586 91.5301H60.1675L76.513 82.7771C77.1064 82.4603 77.3294 81.7242 77.0127 81.1353C76.696 80.542 75.9598 80.3189 75.3709 80.6357L60.091 88.8177L59.8278 88.3269L79.1724 77.9679L79.4317 78.4543ZM9.261 70.9906C8.58735 70.9906 8.04308 70.4463 8.04308 69.7727C8.04308 69.099 8.58735 68.5548 9.261 68.5548H48.7337C49.4073 68.5548 49.9516 69.099 49.9516 69.7727C49.9516 70.4463 49.4073 70.9906 48.7337 70.9906H9.261ZM9.261 62.4339C8.58735 62.4339 8.04308 61.8896 8.04308 61.216C8.04308 60.5423 8.58735 59.9981 9.261 59.9981H46.3479C47.0215 59.9981 47.5658 60.5423 47.5658 61.216C47.5658 61.8896 47.0215 62.4339 46.3479 62.4339H9.261ZM9.261 53.8727C8.58735 53.8727 8.04308 53.3284 8.04308 52.6548C8.04308 51.9812 8.58735 51.4369 9.261 51.4369H43.9655C44.6391 51.4369 45.1834 51.9812 45.1834 52.6548C45.1834 53.3284 44.6391 53.8727 43.9655 53.8727H9.261ZM9.261 45.316C8.58735 45.316 8.04308 44.7717 8.04308 44.0981C8.04308 43.4244 8.58735 42.8802 9.261 42.8802H49.8678C50.5414 42.8802 51.0857 43.4244 51.0857 44.0981C51.0857 44.7717 50.5414 45.316 49.8678 45.316H9.261ZM9.261 36.7548C8.58735 36.7548 8.04308 36.2106 8.04308 35.5369C8.04308 34.8633 8.58735 34.319 9.261 34.319H49.8678C50.5414 34.319 51.0857 34.8633 51.0857 35.5369C51.0857 36.2106 50.5414 36.7548 49.8678 36.7548H9.261ZM9.261 28.1981C8.58735 28.1981 8.04308 27.6538 8.04308 26.9802C8.04308 26.3065 8.58735 25.7623 9.261 25.7623H49.8678C50.5414 25.7623 51.0857 26.3065 51.0857 26.9802C51.0857 27.6538 50.5414 28.1981 49.8678 28.1981H9.261ZM22.1448 19.6414C21.4712 19.6414 20.9269 19.0971 20.9269 18.4235C20.9269 17.7498 21.4712 17.2056 22.1448 17.2056H49.8666C50.5403 17.2056 51.0845 17.7498 51.0845 18.4235C51.0845 19.0971 50.5403 19.6414 49.8666 19.6414H22.1448Z" fill="#CC0001"/>
</svg>
