<svg width="30" height="30" viewBox="0 0 30 30" fill="none" xmlns="http://www.w3.org/2000/svg">
<path d="M22.2528 29.9979H7.74518C3.46738 29.9979 0 26.5305 0 22.2527V7.74517C0 3.46737 3.46738 0 7.74518 0H22.2528C26.5306 0 29.9979 3.46737 29.9979 7.74517V22.2527C29.9979 26.5305 26.5306 29.9979 22.2528 29.9979Z" fill="white"/>
<path d="M16.706 13.5987L23.374 5.84326H21.7942L15.9981 12.5728L11.3715 5.84326H6.03711L13.0334 16.0197L6.03711 24.1547H7.61692L13.7413 17.0456L18.6243 24.1547H23.9587L16.706 13.5987ZM8.19139 7.00247H10.6227L21.8044 22.9955H19.3732L8.19139 7.00247Z" fill="black"/>
</svg>
